<svg width="11" height="15" viewBox="0 0 11 15" fill="none" xmlns="http://www.w3.org/2000/svg">
<path d="M8.1843 1.80827C7.41183 1.14018 6.31654 0.748535 5.18666 0.748535C2.33889 0.748535 0.0214844 3.06384 0.0214844 5.90902C0.0214844 8.75419 2.33889 11.0695 5.18666 11.0695C6.30501 11.0695 7.44642 10.6318 8.1843 9.94064V10.1365C8.14971 12.1523 7.16971 13.1775 5.25583 13.1775H5.23278C4.14901 13.1775 3.19207 12.7628 2.3043 11.8989L2.2236 11.8182L0.632541 13.3387L0.701715 13.4194C1.5203 14.3754 3.18054 15.4697 5.17513 15.4697C5.20972 15.4697 5.24431 15.4697 5.2789 15.4697C7.14666 15.4352 10.2827 14.7095 10.3749 10.2171V0.978914H8.1843V1.80827ZM5.25583 8.83483C3.5956 8.83483 2.33889 7.57926 2.33889 5.90902C2.33889 4.25029 3.5956 2.99473 5.25583 2.99473C6.97371 2.99473 8.21889 4.21573 8.21889 5.90902C8.20737 7.6023 6.97371 8.83483 5.25583 8.83483Z" fill="white"/>
</svg>
