<svg width="27" height="18" viewBox="0 0 27 18" fill="none" xmlns="http://www.w3.org/2000/svg">
<path d="M19.5502 0.333984C17.2674 0.333984 15.0307 1.37069 13.6702 3.00638C12.425 1.35917 10.6149 0.333984 8.18212 0.333984C6.19905 0.333984 4.78092 1.22094 4.01997 1.93512V0.760186H0.595703V17.5202H4.01997V7.71761C4.01997 5.52902 5.80704 3.75511 7.98612 3.75511C10.1652 3.75511 11.9523 5.54054 11.9523 7.71761V17.5202H15.3765V7.71761C15.3765 5.52902 17.1636 3.75511 19.3427 3.75511C21.5218 3.75511 23.3089 5.54054 23.3089 7.71761V17.5202H26.7331V7.71761C26.7562 3.22523 23.8392 0.333984 19.5502 0.333984Z" fill="white"/>
</svg>
