<svg width="38" height="38" viewBox="0 0 38 38" fill="none" xmlns="http://www.w3.org/2000/svg">
<path d="M24.5368 18.8434C24.5368 21.8959 22.058 24.3725 19.0027 24.3725C15.9473 24.3725 13.4685 21.8959 13.4685 18.8434C13.4685 15.7909 15.9473 13.3143 19.0027 13.3143C22.058 13.3143 24.5368 15.8024 24.5368 18.8434ZM19.0027 0.470703C8.8567 0.470703 0.601562 8.71826 0.601562 18.8549C0.601562 28.9916 8.8567 37.2276 19.0027 37.2276C22.7152 37.2276 26.3009 36.1218 29.3677 34.0254L29.4254 33.9908L26.9465 31.1111L26.9004 31.1341C24.5368 32.6431 21.8159 33.4494 19.0027 33.4494C10.9435 33.4494 4.38324 26.8951 4.38324 18.8434C4.38324 10.7917 10.9435 4.2374 19.0027 4.2374C27.0618 4.2374 33.6221 10.7917 33.6221 18.8434C33.6221 19.8916 33.5068 20.9399 33.2762 21.9881C32.815 23.8887 31.4891 24.4646 30.4861 24.384C29.483 24.3034 28.307 23.5892 28.2955 21.8383V18.8434C28.2955 13.7175 24.1218 9.54763 18.9911 9.54763C13.8605 9.54763 9.68682 13.7175 9.68682 18.8434C9.68682 23.9693 13.8605 28.1392 18.9911 28.1392C21.4815 28.1392 23.822 27.1601 25.586 25.3977C26.6122 26.9873 28.2839 27.9894 30.1863 28.1392C30.3477 28.1507 30.5207 28.1622 30.6821 28.1622C32.0195 28.1622 33.3454 27.713 34.4176 26.9067C35.5245 26.0658 36.3431 24.8563 36.7927 23.4049C36.8619 23.1745 37.0002 22.6331 37.0002 22.6331V22.6101C37.2654 21.4467 37.3923 20.2833 37.3923 18.8434C37.4038 8.71826 29.1486 0.470703 19.0027 0.470703Z" fill="white"/>
</svg>
