<svg width="17" height="19" viewBox="0 0 17 19" fill="none" xmlns="http://www.w3.org/2000/svg">
<path d="M13.5367 14.6274C12.4845 15.1892 11.3056 15.4801 10.1092 15.4732C6.52815 15.4732 3.93031 12.9524 3.93031 9.48123C3.93031 6.00995 6.52815 3.48367 10.1092 3.48367C11.4006 3.46204 12.6652 3.84816 13.7183 4.58568L16.5675 2.51668L16.3748 2.38169C14.7127 0.940853 12.492 0.177734 9.95004 0.177734C7.19293 0.177734 4.69291 1.09237 2.90793 2.75636C2.00537 3.61313 1.29163 4.64413 0.810971 5.78504C0.330405 6.92595 0.0932637 8.15222 0.114604 9.3875C0.0954808 10.6353 0.331516 11.8741 0.808571 13.03C1.28563 14.186 1.99391 15.2351 2.89121 16.1151C4.6845 17.8452 7.17898 18.7984 9.9165 18.7984C12.7769 18.7984 15.277 17.8149 16.9698 16.0242L14.4194 14.1509L13.5367 14.6274Z" fill="white"/>
</svg>
